<svg xmlns="http://www.w3.org/2000/svg" viewBox="0 0 55.61 62.06"><defs><style>.cls-1{fill:#63e;}.cls-2{fill:#fff;}.cls-3{fill:#f1f2f2;}</style></defs><g id="Layer_2" data-name="Layer 2"><g id="Layer_1-2" data-name="Layer 1"><rect class="cls-1" x="19.22" y="10.7" width="38.54" height="12.85" rx="2.53" transform="translate(-0.83 32.23) rotate(-45)"/><rect class="cls-2" x="4.64" y="10.7" width="12.85" height="12.85" rx="2.5"/><path class="cls-3" d="M51.34,36.37A25.68,25.68,0,0,1,15.08,59.78a22.2,22.2,0,0,1-2.28-1.16A25.71,25.71,0,0,1,0,38a1.55,1.55,0,0,1,1.54-1.66h9.81a1.53,1.53,0,0,1,1.52,1.38A12.85,12.85,0,0,0,25.64,49.21h0A12.85,12.85,0,0,0,38.48,37a1.49,1.49,0,0,1,.44-1l8.49-8.5a1.54,1.54,0,0,1,2.53.55A25.54,25.54,0,0,1,51.34,36.37Z"/></g></g></svg>